<svg width="83.88" xmlns="http://www.w3.org/2000/svg" height="83.864" id="screenshot-9b372061-7b83-8055-8007-68538f4c516c" viewBox="278.06 4778.068 83.88 83.864" style="-webkit-print-color-adjust::exact" xmlns:xlink="http://www.w3.org/1999/xlink" fill="none" version="1.1">
  <g id="shape-9b372061-7b83-8055-8007-68538f4c516c">
    <g class="fills" id="fills-9b372061-7b83-8055-8007-68538f4c516c">
      <path d="M291.05999755859375,4829.73193359375L320,4848.93212890625L348.94000244140625,4829.73193359375L348.94000244140625,4810.26806640625L320,4791.06787109375L291.05999755859375,4810.26806640625ZM348.93798828125,4829.73193359375L320,4810.26806640625L291.05999755859375,4829.73193359375M291.05999755859375,4810.26904296875L320,4829.47021484375L348.94000244140625,4810.27001953125M320,4791.06787109375L320,4810.26806640625M320,4829.73095703125L320,4848.93115234375" fill="none" stroke-linejoin="round" stroke-linecap="round" style="fill:none">
      </path>
    </g>
    <g fill="none" stroke-linejoin="round" stroke-linecap="round" id="strokes-1c8e5a7a-eb32-80ca-8007-6febe811faa0-9b372061-7b83-8055-8007-68538f4c516c" class="strokes">
      <g class="stroke-shape">
        <path d="M291.05999755859375,4829.73193359375L320,4848.93212890625L348.94000244140625,4829.73193359375L348.94000244140625,4810.26806640625L320,4791.06787109375L291.05999755859375,4810.26806640625ZM348.93798828125,4829.73193359375L320,4810.26806640625L291.05999755859375,4829.73193359375M291.05999755859375,4810.26904296875L320,4829.47021484375L348.94000244140625,4810.27001953125M320,4791.06787109375L320,4810.26806640625M320,4829.73095703125L320,4848.93115234375" style="fill:none;fill-opacity:none;stroke-width:5;stroke:#f6f6f6;stroke-opacity:1">
        </path>
      </g>
    </g>
  </g>
</svg>