<svg width="24" xmlns="http://www.w3.org/2000/svg" height="20" id="screenshot-9b372061-7b83-8055-8007-68476d62c468" viewBox="553 3339 24 20" style="-webkit-print-color-adjust::exact" xmlns:xlink="http://www.w3.org/1999/xlink" fill="none" version="1.1">
  <g id="shape-9b372061-7b83-8055-8007-68476d62c468">
    <g class="fills" id="fills-9b372061-7b83-8055-8007-68476d62c468">
      <path d="M562.999755859375,3348.999755859375L563.0005493164062,3345.60009765625C562.999755859375,3345.0400390625,562.99951171875,3344.759521484375,562.8904418945312,3344.54638671875C562.7951049804688,3344.357421875,562.641357421875,3344.2041015625,562.4542236328125,3344.10888671875C562.2408447265625,3343.999755859375,561.9610595703125,3343.999755859375,561.4014282226562,3343.999755859375L559.597412109375,3343.999267578125C559.0400390625,3343.999755859375,558.7599487304688,3343.99951171875,558.54638671875,3344.108154296875C558.35888671875,3344.205322265625,558.2056274414062,3344.3583984375,558.1098022460938,3344.546875C558.000732421875,3344.760009765625,558.000244140625,3345.0390625,557.9996337890625,3345.597900390625L557.9996948242188,3347.401611328125C558.0001220703125,3347.960693359375,557.9993286132812,3348.2392578125,558.1088256835938,3348.455078125C558.2046508789062,3348.64208984375,558.3578491210938,3348.795654296875,558.54736328125,3348.891357421875C558.759521484375,3348.99951171875,559.0407104492188,3349.00048828125,559.5997314453125,3348.999755859375L562.999755859375,3348.999755859375ZM562.999755859375,3348.999755859375L562.9998779296875,3351C562.9996948242188,3352.656494140625,561.6564331054688,3353.99951171875,560,3354.000244140625M572,3349L572.0005493164062,3345.6005859375C572.0006713867188,3345.040283203125,572.0003051757812,3344.76025390625,571.8916015625,3344.54638671875C571.7955322265625,3344.357666015625,571.6424560546875,3344.205078125,571.4544067382812,3344.10888671875C571.2410278320312,3343.999755859375,570.9601440429688,3343.9990234375,570.4016723632812,3344.000244140625L568.598388671875,3343.999755859375C568.0393676757812,3344.00048828125,567.7610473632812,3344.0009765625,567.5457153320312,3344.10888671875C567.3583374023438,3344.205078125,567.2048950195312,3344.35888671875,567.1087646484375,3344.546630859375C566.9996948242188,3344.760009765625,567,3345.03955078125,567.0001831054688,3345.5986328125L566.9992065429688,3347.40185546875C567.00048828125,3347.96044921875,567.0001831054688,3348.24072265625,567.10888671875,3348.454345703125C567.2048950195312,3348.642578125,567.357666015625,3348.794921875,567.5453491210938,3348.889892578125C567.7605590820312,3349.000244140625,568.0391845703125,3348.998779296875,568.5999755859375,3349L572,3349ZM572,3349L572.0006103515625,3351.000244140625C572.0006713867188,3352.65673828125,570.6566162109375,3353.99951171875,568.9996337890625,3353.99951171875" fill="none" stroke-linecap="round" stroke-linejoin="round" style="fill:none">
      </path>
    </g>
    <g fill="none" stroke-linecap="round" stroke-linejoin="round" id="strokes-189f39cd-1670-804f-8007-6c120072c3cf-9b372061-7b83-8055-8007-68476d62c468" class="strokes">
      <g class="stroke-shape">
        <path d="M562.999755859375,3348.999755859375L563.0005493164062,3345.60009765625C562.999755859375,3345.0400390625,562.99951171875,3344.759521484375,562.8904418945312,3344.54638671875C562.7951049804688,3344.357421875,562.641357421875,3344.2041015625,562.4542236328125,3344.10888671875C562.2408447265625,3343.999755859375,561.9610595703125,3343.999755859375,561.4014282226562,3343.999755859375L559.597412109375,3343.999267578125C559.0400390625,3343.999755859375,558.7599487304688,3343.99951171875,558.54638671875,3344.108154296875C558.35888671875,3344.205322265625,558.2056274414062,3344.3583984375,558.1098022460938,3344.546875C558.000732421875,3344.760009765625,558.000244140625,3345.0390625,557.9996337890625,3345.597900390625L557.9996948242188,3347.401611328125C558.0001220703125,3347.960693359375,557.9993286132812,3348.2392578125,558.1088256835938,3348.455078125C558.2046508789062,3348.64208984375,558.3578491210938,3348.795654296875,558.54736328125,3348.891357421875C558.759521484375,3348.99951171875,559.0407104492188,3349.00048828125,559.5997314453125,3348.999755859375L562.999755859375,3348.999755859375ZM562.999755859375,3348.999755859375L562.9998779296875,3351C562.9996948242188,3352.656494140625,561.6564331054688,3353.99951171875,560,3354.000244140625M572,3349L572.0005493164062,3345.6005859375C572.0006713867188,3345.040283203125,572.0003051757812,3344.76025390625,571.8916015625,3344.54638671875C571.7955322265625,3344.357666015625,571.6424560546875,3344.205078125,571.4544067382812,3344.10888671875C571.2410278320312,3343.999755859375,570.9601440429688,3343.9990234375,570.4016723632812,3344.000244140625L568.598388671875,3343.999755859375C568.0393676757812,3344.00048828125,567.7610473632812,3344.0009765625,567.5457153320312,3344.10888671875C567.3583374023438,3344.205078125,567.2048950195312,3344.35888671875,567.1087646484375,3344.546630859375C566.9996948242188,3344.760009765625,567,3345.03955078125,567.0001831054688,3345.5986328125L566.9992065429688,3347.40185546875C567.00048828125,3347.96044921875,567.0001831054688,3348.24072265625,567.10888671875,3348.454345703125C567.2048950195312,3348.642578125,567.357666015625,3348.794921875,567.5453491210938,3348.889892578125C567.7605590820312,3349.000244140625,568.0391845703125,3348.998779296875,568.5999755859375,3349L572,3349ZM572,3349L572.0006103515625,3351.000244140625C572.0006713867188,3352.65673828125,570.6566162109375,3353.99951171875,568.9996337890625,3353.99951171875" style="fill:none;fill-opacity:none;stroke-width:2;stroke:#030303;stroke-opacity:1">
        </path>
      </g>
    </g>
  </g>
</svg>