<svg width="24" xmlns="http://www.w3.org/2000/svg" height="20" id="screenshot-9b372061-7b83-8055-8007-68476d62c46a" viewBox="60 3165 24 20" style="-webkit-print-color-adjust::exact" xmlns:xlink="http://www.w3.org/1999/xlink" fill="none" version="1.1">
  <g id="shape-9b372061-7b83-8055-8007-68476d62c46a">
    <g class="fills" id="fills-9b372061-7b83-8055-8007-68476d62c46a">
      <path d="M74,3175L74,3178.39990234375C74,3178.960205078125,74,3179.239990234375,74.10900115966797,3179.453857421875C74.20490264892578,3179.64208984375,74.35769653320312,3179.795166015625,74.5458984375,3179.89111328125C74.75959777832031,3180,75.03949737548828,3180,75.59850311279297,3180L77.40150451660156,3180C77.96050262451172,3180,78.23999786376953,3180,78.45369720458984,3179.89111328125C78.64189910888672,3179.795166015625,78.79519653320312,3179.641845703125,78.89109802246094,3179.45361328125C79,3179.239990234375,79,3178.96044921875,79,3178.401611328125L79,3176.598388671875C79,3176.03955078125,79,3175.759521484375,78.89109802246094,3175.5458984375C78.79519653320312,3175.357666015625,78.64199829101562,3175.204833984375,78.45379638671875,3175.10888671875C78.23989868164062,3175,77.96009826660156,3175,77.4000015258789,3175L74,3175ZM74,3175L74,3173C74,3171.34326171875,75.34310150146484,3170,77,3170M65,3175L65,3178.39990234375C65,3178.960205078125,65,3179.239990234375,65.10899353027344,3179.453857421875C65.20487213134766,3179.64208984375,65.35774230957031,3179.795166015625,65.5458984375,3179.89111328125C65.75959777832031,3180,66.03949737548828,3180,66.59844970703125,3180L68.40154266357422,3180C68.96050262451172,3180,69.239990234375,3180,69.45369720458984,3179.89111328125C69.64186096191406,3179.795166015625,69.79524230957031,3179.641845703125,69.89111328125,3179.45361328125C70,3179.239990234375,70,3178.96044921875,70,3178.401611328125L70,3176.598388671875C70,3176.03955078125,70,3175.759521484375,69.89111328125,3175.5458984375C69.79524230957031,3175.357666015625,69.64196014404297,3175.204833984375,69.45378875732422,3175.10888671875C69.23988342285156,3175,68.96005249023438,3175,68.4000015258789,3175L65,3175ZM65,3175L65,3173C65,3171.34326171875,66.34314727783203,3170,68,3170" fill="none" stroke-linecap="round" stroke-linejoin="round" style="fill:none">
      </path>
    </g>
    <g fill="none" stroke-linecap="round" stroke-linejoin="round" id="strokes-189f39cd-1670-804f-8007-6c11e79d4292-9b372061-7b83-8055-8007-68476d62c46a" class="strokes">
      <g class="stroke-shape">
        <path d="M74,3175L74,3178.39990234375C74,3178.960205078125,74,3179.239990234375,74.10900115966797,3179.453857421875C74.20490264892578,3179.64208984375,74.35769653320312,3179.795166015625,74.5458984375,3179.89111328125C74.75959777832031,3180,75.03949737548828,3180,75.59850311279297,3180L77.40150451660156,3180C77.96050262451172,3180,78.23999786376953,3180,78.45369720458984,3179.89111328125C78.64189910888672,3179.795166015625,78.79519653320312,3179.641845703125,78.89109802246094,3179.45361328125C79,3179.239990234375,79,3178.96044921875,79,3178.401611328125L79,3176.598388671875C79,3176.03955078125,79,3175.759521484375,78.89109802246094,3175.5458984375C78.79519653320312,3175.357666015625,78.64199829101562,3175.204833984375,78.45379638671875,3175.10888671875C78.23989868164062,3175,77.96009826660156,3175,77.4000015258789,3175L74,3175ZM74,3175L74,3173C74,3171.34326171875,75.34310150146484,3170,77,3170M65,3175L65,3178.39990234375C65,3178.960205078125,65,3179.239990234375,65.10899353027344,3179.453857421875C65.20487213134766,3179.64208984375,65.35774230957031,3179.795166015625,65.5458984375,3179.89111328125C65.75959777832031,3180,66.03949737548828,3180,66.59844970703125,3180L68.40154266357422,3180C68.96050262451172,3180,69.239990234375,3180,69.45369720458984,3179.89111328125C69.64186096191406,3179.795166015625,69.79524230957031,3179.641845703125,69.89111328125,3179.45361328125C70,3179.239990234375,70,3178.96044921875,70,3178.401611328125L70,3176.598388671875C70,3176.03955078125,70,3175.759521484375,69.89111328125,3175.5458984375C69.79524230957031,3175.357666015625,69.64196014404297,3175.204833984375,69.45378875732422,3175.10888671875C69.23988342285156,3175,68.96005249023438,3175,68.4000015258789,3175L65,3175ZM65,3175L65,3173C65,3171.34326171875,66.34314727783203,3170,68,3170" style="fill:none;fill-opacity:none;stroke-width:2;stroke:#030303;stroke-opacity:1">
        </path>
      </g>
    </g>
  </g>
</svg>