<svg width="24" xmlns="http://www.w3.org/2000/svg" height="24" id="screenshot-2e8159ae-7a56-8002-8007-6812dec23323" viewBox="384 423 24 24" style="-webkit-print-color-adjust::exact" xmlns:xlink="http://www.w3.org/1999/xlink" fill="none" version="1.1">
  <g id="shape-2e8159ae-7a56-8002-8007-6812dec23323" style="fill:#000000" class="size-6" rx="0" ry="0">
    <g id="shape-2e8159ae-7a56-8002-8007-6812dec2aa73" style="display:none">
      <g class="fills" id="fills-2e8159ae-7a56-8002-8007-6812dec2aa73">
        <rect rx="0" ry="0" x="384" y="423" transform="matrix(1.000000, 0.000000, 0.000000, 1.000000, 0.000000, 0.000000)" width="24" height="24" fill="none" style="fill:none">
        </rect>
      </g>
      <g fill="none" id="strokes-2b91d0db-3941-8062-8007-6ab83fec39b4-2e8159ae-7a56-8002-8007-6812dec2aa73" class="strokes">
        <g class="inner-stroke-shape" transform="matrix(1.000000, 0.000000, 0.000000, 1.000000, 0.000000, 0.000000)">
          <defs>
            <clipPath id="inner-stroke-render-114-2e8159ae-7a56-8002-8007-6812dec2aa73-0">
              <use href="#stroke-shape-render-114-2e8159ae-7a56-8002-8007-6812dec2aa73-0">
              </use>
            </clipPath>
            <rect rx="0" ry="0" x="384" y="423" width="24" height="24" style="fill:none;fill-opacity:none;stroke-width:3;stroke:#fffffe;stroke-opacity:1" id="stroke-shape-render-114-2e8159ae-7a56-8002-8007-6812dec2aa73-0">
            </rect>
          </defs>
          <use href="#stroke-shape-render-114-2e8159ae-7a56-8002-8007-6812dec2aa73-0" clip-path="url(&#x27;#inner-stroke-render-114-2e8159ae-7a56-8002-8007-6812dec2aa73-0&#x27;)">
          </use>
        </g>
      </g>
    </g>
    <g id="shape-2e8159ae-7a56-8002-8007-6812dec2aa74">
      <g class="fills" id="fills-2e8159ae-7a56-8002-8007-6812dec2aa74">
        <path d="M405.75,429.75L405.75,440.25C405.75,441.4926452636719,404.74267578125,442.5,403.5,442.5L388.5,442.5C387.25738525390625,442.5,386.25,441.4926452636719,386.25,440.25L386.25,429.75M405.75,429.75C405.75,428.5073547363281,404.74267578125,427.5,403.5,427.5L388.5,427.5C387.25738525390625,427.5,386.25,428.5073547363281,386.25,429.75M405.75,429.75L405.75,429.9930114746094C405.75006103515625,430.77410888671875,405.3450927734375,431.4993591308594,404.67999267578125,431.90899658203125L397.17999267578125,436.52398681640625C396.4564208984375,436.96966552734375,395.5435791015625,436.96966552734375,394.82000732421875,436.52398681640625L387.32000732421875,431.9100036621094C386.6549072265625,431.5003662109375,386.24993896484375,430.77508544921875,386.25,429.9939880371094L386.25,429.75" fill="none" stroke-linecap="round" stroke-linejoin="round" style="fill:none">
        </path>
      </g>
      <g fill="none" stroke-linecap="round" stroke-linejoin="round" id="strokes-2b91d0db-3941-8062-8007-6ab83fec61ba-2e8159ae-7a56-8002-8007-6812dec2aa74" class="strokes">
        <g class="stroke-shape">
          <path d="M405.75,429.75L405.75,440.25C405.75,441.4926452636719,404.74267578125,442.5,403.5,442.5L388.5,442.5C387.25738525390625,442.5,386.25,441.4926452636719,386.25,440.25L386.25,429.75M405.75,429.75C405.75,428.5073547363281,404.74267578125,427.5,403.5,427.5L388.5,427.5C387.25738525390625,427.5,386.25,428.5073547363281,386.25,429.75M405.75,429.75L405.75,429.9930114746094C405.75006103515625,430.77410888671875,405.3450927734375,431.4993591308594,404.67999267578125,431.90899658203125L397.17999267578125,436.52398681640625C396.4564208984375,436.96966552734375,395.5435791015625,436.96966552734375,394.82000732421875,436.52398681640625L387.32000732421875,431.9100036621094C386.6549072265625,431.5003662109375,386.24993896484375,430.77508544921875,386.25,429.9939880371094L386.25,429.75" style="fill:none;fill-opacity:none;stroke-width:1.5;stroke:#fffffe;stroke-opacity:1">
          </path>
        </g>
      </g>
    </g>
  </g>
</svg>