<svg width="64" xmlns="http://www.w3.org/2000/svg" height="64" id="screenshot-9b372061-7b83-8055-8007-68538f4c516a" viewBox="288 4869 64 64" style="-webkit-print-color-adjust::exact" xmlns:xlink="http://www.w3.org/1999/xlink" fill="none" version="1.1">
  <g id="shape-9b372061-7b83-8055-8007-68538f4c516a" style="fill:#000000" class="size-6" rx="0" ry="0">
    <g id="shape-9b372061-7b83-8055-8007-68538f4c5171" style="display:none">
      <g class="fills" id="fills-9b372061-7b83-8055-8007-68538f4c5171">
        <rect rx="0" ry="0" x="288" y="4869" transform="matrix(1.000000, 0.000000, 0.000000, 1.000000, 0.000000, 0.000000)" width="64" height="64" fill="none" style="fill:none">
        </rect>
      </g>
    </g>
    <g id="shape-9b372061-7b83-8055-8007-68538f4c5172">
      <g class="fills" id="fills-9b372061-7b83-8055-8007-68538f4c5172">
        <path d="M292,4892.11962890625L292,4915C292,4919.41796875,295.58172607421875,4923,300,4923L340,4923C344.4183044433594,4923,348,4919.41796875,348,4915L348,4892.11962890625L324.1920166015625,4906.76806640625C321.62115478515625,4908.35009765625,318.37884521484375,4908.35009765625,315.8079833984375,4906.76806640625L292,4892.11962890625Z" style="fill:#f6f6f6">
        </path>
      </g>
    </g>
    <g id="shape-9b372061-7b83-8055-8007-68538f4c5173">
      <g class="fills" id="fills-9b372061-7b83-8055-8007-68538f4c5173">
        <path d="M348,4887.421875L348,4887C348,4882.58203125,344.4183044433594,4879,340,4879L300,4879C295.58172607421875,4879,292,4882.58203125,292,4887L292,4887.421875L317.90399169921875,4903.36328125C319.189453125,4904.15380859375,320.810546875,4904.15380859375,322.09600830078125,4903.36328125L348,4887.421875Z" style="fill:#f6f6f6">
        </path>
      </g>
    </g>
  </g>
</svg>