<svg width="64" xmlns="http://www.w3.org/2000/svg" height="62.421" id="screenshot-9b372061-7b83-8055-8007-68538f4c516e" viewBox="288 4704 64 62.421" style="-webkit-print-color-adjust::exact" xmlns:xlink="http://www.w3.org/1999/xlink" fill="none" version="1.1">
  <g id="shape-9b372061-7b83-8055-8007-68538f4c516e">
    <g class="fills" id="fills-9b372061-7b83-8055-8007-68538f4c516e">
      <path d="M320,4704C302.32000732421875,4704,288,4718.3203125,288,4736C288,4750.16015625,297.15997314453125,4762.119140625,309.8800048828125,4766.359375C311.47998046875,4766.640625,312.08001708984375,4765.6796875,312.08001708984375,4764.83984375C312.08001708984375,4764.080078125,312.03997802734375,4761.560546875,312.03997802734375,4758.880859375C304,4760.359375,301.91998291015625,4756.919921875,301.280029296875,4755.119140625C300.91998291015625,4754.19921875,299.3599853515625,4751.359375,298,4750.599609375C296.8800048828125,4750,295.280029296875,4748.51953125,297.96002197265625,4748.48046875C300.47998046875,4748.439453125,302.280029296875,4750.80078125,302.8800048828125,4751.759765625C305.760009765625,4756.599609375,310.3599853515625,4755.240234375,312.20001220703125,4754.400390625C312.47998046875,4752.3203125,313.32000732421875,4750.919921875,314.239990234375,4750.119140625C307.1199951171875,4749.3203125,299.67999267578125,4746.560546875,299.67999267578125,4734.3203125C299.67999267578125,4730.83984375,300.91998291015625,4727.9609375,302.96002197265625,4725.720703125C302.6400146484375,4724.919921875,301.52001953125,4721.640625,303.280029296875,4717.240234375C303.280029296875,4717.240234375,305.96002197265625,4716.400390625,312.08001708984375,4720.51953125C314.6400146484375,4719.80078125,317.3599853515625,4719.439453125,320.08001708984375,4719.439453125C322.79998779296875,4719.439453125,325.52001953125,4719.80078125,328.08001708984375,4720.51953125C334.20001220703125,4716.359375,336.8800048828125,4717.240234375,336.8800048828125,4717.240234375C338.6400146484375,4721.640625,337.52001953125,4724.919921875,337.20001220703125,4725.720703125C339.239990234375,4727.9609375,340.47998046875,4730.80078125,340.47998046875,4734.3203125C340.47998046875,4746.599609375,333,4749.3203125,325.8800048828125,4750.119140625C327.03997802734375,4751.119140625,328.03997802734375,4753.0390625,328.03997802734375,4756.0390625C328.03997802734375,4760.3203125,328,4763.759765625,328,4764.83984375C328,4765.6796875,328.5999755859375,4766.6796875,330.20001220703125,4766.359375C343.22576904296875,4761.962890625,351.9964599609375,4749.748046875,352,4736C352,4718.3203125,337.67999267578125,4704,320,4704Z" style="fill:#f6f6f6">
      </path>
    </g>
  </g>
</svg>