<svg width="53.333" xmlns="http://www.w3.org/2000/svg" height="53.333" id="screenshot-9b372061-7b83-8055-8007-68538f4c5170" viewBox="293.333 4625.333 53.333 53.333" style="-webkit-print-color-adjust::exact" xmlns:xlink="http://www.w3.org/1999/xlink" fill="none" version="1.1">
  <g id="shape-9b372061-7b83-8055-8007-68538f4c5170">
    <g class="fills" id="fills-9b372061-7b83-8055-8007-68538f4c5170">
      <path d="M342.6666564941406,4625.3330078125L297.3333435058594,4625.3330078125C295.1241760253906,4625.3330078125,293.3333435058594,4627.1240234375,293.3333435058594,4629.3330078125L293.3333435058594,4674.6669921875C293.3333435058594,4676.8759765625,295.1241760253906,4678.6669921875,297.3333435058594,4678.6669921875L342.6666564941406,4678.6669921875C344.8758239746094,4678.6669921875,346.6666564941406,4676.8759765625,346.6666564941406,4674.6669921875L346.6666564941406,4629.3330078125C346.6666564941406,4627.1240234375,344.8758239746094,4625.3330078125,342.6666564941406,4625.3330078125ZM309.3333435058594,4670.6669921875L301.3333435058594,4670.6669921875L301.3333435058594,4646.6669921875L309.3333435058594,4646.6669921875ZM305.3333435058594,4642C302.774658203125,4641.9267578125,300.75244140625,4639.8056640625,300.8008117675781,4637.2470703125C300.8492431640625,4634.6875,302.9502258300781,4632.64453125,305.5098571777344,4632.6689453125C308.0694580078125,4632.6923828125,310.1322937011719,4634.7734375,310.1333312988281,4637.3330078125C310.0894775390625,4639.9443359375,307.9446716308594,4642.0302734375,305.3333435058594,4642ZM338.6666564941406,4670.6669921875L330.6666564941406,4670.6669921875L330.6666564941406,4658.0263671875C330.6666564941406,4654.2392578125,329.066650390625,4652.8798828125,326.9866638183594,4652.8798828125C325.7549743652344,4652.9619140625,324.606689453125,4653.53125,323.7959899902344,4654.4619140625C322.9852294921875,4655.3935546875,322.5788269042969,4656.6083984375,322.6666564941406,4657.83984375C322.6534423828125,4657.9638671875,322.6534423828125,4658.08984375,322.6666564941406,4658.2138671875L322.6666564941406,4670.6669921875L314.6666564941406,4670.6669921875L314.6666564941406,4646.6669921875L322.3999938964844,4646.6669921875L322.3999938964844,4650.1328125C323.986328125,4647.7197265625,326.7137145996094,4646.3056640625,329.6000061035156,4646.3994140625C333.7333068847656,4646.3994140625,338.5599670410156,4648.6923828125,338.5599670410156,4656.16015625Z" style="fill:#f6f6f6">
      </path>
    </g>
  </g>
</svg>