<svg width="24" xmlns="http://www.w3.org/2000/svg" height="24" id="screenshot-6abaacef-30f0-808b-8007-7386ff2978f3" viewBox="495 5445 24 24" style="-webkit-print-color-adjust::exact" xmlns:xlink="http://www.w3.org/1999/xlink" fill="none" version="1.1">
  <g id="shape-6abaacef-30f0-808b-8007-7386ff2978f3" style="fill:#000000" class="size-6" rx="0" ry="0">
    <g id="shape-6abaacef-30f0-808b-8007-7386ff29e9e0" style="display:none">
      <g class="fills" id="fills-6abaacef-30f0-808b-8007-7386ff29e9e0">
        <rect rx="0" ry="0" x="495" y="5445" transform="matrix(1.000000, 0.000000, 0.000000, 1.000000, 0.000000, 0.000000)" width="24" height="24" fill="none" style="fill:none">
        </rect>
      </g>
      <g fill="none" id="strokes-6abaacef-30f0-808b-8007-73872a2b401b-6abaacef-30f0-808b-8007-7386ff29e9e0" class="strokes">
        <g class="inner-stroke-shape" transform="matrix(1.000000, 0.000000, 0.000000, 1.000000, 0.000000, 0.000000)">
          <defs>
            <clipPath id="inner-stroke-render-117-6abaacef-30f0-808b-8007-7386ff29e9e0-0">
              <use href="#stroke-shape-render-117-6abaacef-30f0-808b-8007-7386ff29e9e0-0">
              </use>
            </clipPath>
            <rect rx="0" ry="0" x="495" y="5445" width="24" height="24" style="fill:none;fill-opacity:none;stroke-width:3;stroke:#f6f6f6;stroke-opacity:1" id="stroke-shape-render-117-6abaacef-30f0-808b-8007-7386ff29e9e0-0">
            </rect>
          </defs>
          <use href="#stroke-shape-render-117-6abaacef-30f0-808b-8007-7386ff29e9e0-0" clip-path="url(&#x27;#inner-stroke-render-117-6abaacef-30f0-808b-8007-7386ff29e9e0-0&#x27;)">
          </use>
        </g>
      </g>
    </g>
    <g id="shape-6abaacef-30f0-808b-8007-7386ff2a6dd0">
      <g class="fills" id="fills-6abaacef-30f0-808b-8007-7386ff2a6dd0">
        <path d="M510,5455.5C510,5457.15673828125,508.6568603515625,5458.5,507,5458.5C505.3431396484375,5458.5,504,5457.15673828125,504,5455.5C504,5453.84326171875,505.3431396484375,5452.5,507,5452.5C508.6568603515625,5452.5,510,5453.84326171875,510,5455.5Z" fill="none" stroke-linecap="round" stroke-linejoin="round" style="fill:none">
        </path>
      </g>
      <g fill="none" stroke-linecap="round" stroke-linejoin="round" id="strokes-6abaacef-30f0-808b-8007-73872a2b401c-6abaacef-30f0-808b-8007-7386ff2a6dd0" class="strokes">
        <g class="inner-stroke-shape">
          <defs>
            <clipPath id="inner-stroke-render-118-6abaacef-30f0-808b-8007-7386ff2a6dd0-0">
              <use href="#stroke-shape-render-118-6abaacef-30f0-808b-8007-7386ff2a6dd0-0">
              </use>
            </clipPath>
            <path d="M510,5455.5C510,5457.15673828125,508.6568603515625,5458.5,507,5458.5C505.3431396484375,5458.5,504,5457.15673828125,504,5455.5C504,5453.84326171875,505.3431396484375,5452.5,507,5452.5C508.6568603515625,5452.5,510,5453.84326171875,510,5455.5Z" style="fill:none;fill-opacity:none;stroke-width:3;stroke:#f6f6f6;stroke-opacity:1" id="stroke-shape-render-118-6abaacef-30f0-808b-8007-7386ff2a6dd0-0">
            </path>
          </defs>
          <use href="#stroke-shape-render-118-6abaacef-30f0-808b-8007-7386ff2a6dd0-0" clip-path="url(&#x27;#inner-stroke-render-118-6abaacef-30f0-808b-8007-7386ff2a6dd0-0&#x27;)">
          </use>
        </g>
      </g>
    </g>
    <g id="shape-6abaacef-30f0-808b-8007-7386ff2a6dd1">
      <g class="fills" id="fills-6abaacef-30f0-808b-8007-7386ff2a6dd1">
        <path d="M514.5,5455.5C514.5,5462.64208984375,507,5466.75,507,5466.75C507,5466.75,499.5,5462.64208984375,499.5,5455.5C499.5,5451.35791015625,502.85784912109375,5448,507,5448C511.14215087890625,5448,514.5,5451.35791015625,514.5,5455.5Z" fill="none" stroke-linecap="round" stroke-linejoin="round" style="fill:none">
        </path>
      </g>
      <g fill="none" stroke-linecap="round" stroke-linejoin="round" id="strokes-6abaacef-30f0-808b-8007-73872a2b98b8-6abaacef-30f0-808b-8007-7386ff2a6dd1" class="strokes">
        <g class="inner-stroke-shape">
          <defs>
            <clipPath id="inner-stroke-render-119-6abaacef-30f0-808b-8007-7386ff2a6dd1-0">
              <use href="#stroke-shape-render-119-6abaacef-30f0-808b-8007-7386ff2a6dd1-0">
              </use>
            </clipPath>
            <path d="M514.5,5455.5C514.5,5462.64208984375,507,5466.75,507,5466.75C507,5466.75,499.5,5462.64208984375,499.5,5455.5C499.5,5451.35791015625,502.85784912109375,5448,507,5448C511.14215087890625,5448,514.5,5451.35791015625,514.5,5455.5Z" style="fill:none;fill-opacity:none;stroke-width:3;stroke:#f6f6f6;stroke-opacity:1" id="stroke-shape-render-119-6abaacef-30f0-808b-8007-7386ff2a6dd1-0">
            </path>
          </defs>
          <use href="#stroke-shape-render-119-6abaacef-30f0-808b-8007-7386ff2a6dd1-0" clip-path="url(&#x27;#inner-stroke-render-119-6abaacef-30f0-808b-8007-7386ff2a6dd1-0&#x27;)">
          </use>
        </g>
      </g>
    </g>
  </g>
</svg>