<svg width="27.036" xmlns="http://www.w3.org/2000/svg" height="27.075" id="screenshot-9b372061-7b83-8055-8007-68569e42cd44" viewBox="582.501 30.463 27.036 27.075" style="-webkit-print-color-adjust::exact" xmlns:xlink="http://www.w3.org/1999/xlink" fill="none" version="1.1">
  <g id="shape-9b372061-7b83-8055-8007-68569e42cd44">
    <g class="fills" id="fills-9b372061-7b83-8055-8007-68569e42cd44">
      <path d="M582.9400024414062,30.94000244140625C583.525634765625,30.3551025390625,584.474365234375,30.3551025390625,585.0599975585938,30.94000244140625L596,41.8800048828125L606.9400024414062,30.94000244140625C607.31396484375,30.5386962890625,607.8770751953125,30.373504638671875,608.4085693359375,30.50921630859375C608.9400634765625,30.64495849609375,609.3550415039062,31.059967041015625,609.4907836914062,31.5914306640625C609.62646484375,32.122894287109375,609.4613037109375,32.686065673828125,609.0599975585938,33.05999755859375L598.1199951171875,44L609.0599975585938,54.94000244140625C609.4613037109375,55.313934326171875,609.62646484375,55.877105712890625,609.4907836914062,56.4085693359375C609.3550415039062,56.940032958984375,608.9400634765625,57.35504150390625,608.4085693359375,57.49078369140625C607.8770751953125,57.626495361328125,607.31396484375,57.4613037109375,606.9400024414062,57.05999755859375L596,46.1199951171875L585.0599975585938,57.05999755859375C584.468994140625,57.6107177734375,583.5479736328125,57.594482421875,582.9767456054688,57.02325439453125C582.405517578125,56.4520263671875,582.3892822265625,55.531005859375,582.9400024414062,54.94000244140625L593.8800048828125,44L582.9400024414062,33.05999755859375C582.3551025390625,32.474365234375,582.3551025390625,31.525634765625,582.9400024414062,30.94000244140625Z" fill-rule="evenodd" clip-rule="evenodd" style="fill:#000000">
      </path>
    </g>
  </g>
</svg>